<?xml version="1.0" encoding="UTF-8"?>
<svg version="1.1" xmlns="http://www.w3.org/2000/svg" width="330" height="198">
<path d="M0 0 C108.9 0 217.8 0 330 0 C330 65.34 330 130.68 330 198 C221.1 198 112.2 198 0 198 C0 132.66 0 67.32 0 0 Z " fill="#FDFEFE" transform="translate(0,0)"/>
<path d="M0 0 C4.1745213 1.17197574 7.80754063 3.53513269 11.50390625 5.75390625 C12.44386696 6.31252602 12.44386696 6.31252602 13.40281677 6.88243103 C15.4582404 8.10547752 17.51041689 9.33385821 19.5625 10.5625 C21.00835135 11.42466734 22.45431648 12.2866439 23.90039062 13.1484375 C33.53161979 18.89497612 43.12624777 24.70050115 52.70266724 30.53787231 C62.09419668 36.26183648 71.53563322 41.89739609 81 47.5 C91.02697992 53.43842521 101.03969539 59.39917123 111.00927734 65.43359375 C112.24370358 66.18051693 113.47872124 66.92646362 114.71435547 67.67138672 C116.41292489 68.69592804 118.10887579 69.72480682 119.8046875 70.75390625 C120.76358887 71.33470947 121.72249023 71.9155127 122.71044922 72.51391602 C125 74 125 74 127 76 C43.84 76 -39.32 76 -125 76 C-121.34181426 73.07345141 -118.14994529 70.79479822 -114.15234375 68.48828125 C-113.31246918 68.00063042 -113.31246918 68.00063042 -112.45562744 67.50312805 C-111.24905903 66.80272834 -110.04151812 66.10400173 -108.83309937 65.40679932 C-105.55478033 63.51427796 -102.28503507 61.60707813 -99.015625 59.69921875 C-98.00782234 59.11134583 -98.00782234 59.11134583 -96.97966003 58.51159668 C-90.33457766 54.62668855 -83.75684695 50.63653002 -77.1875 46.625 C-67.16818736 40.50909387 -57.10208464 34.47818042 -47 28.5 C-36.36100548 22.20259225 -25.75346672 15.85676555 -15.1875 9.4375 C-14.58478271 9.07156738 -13.98206543 8.70563477 -13.36108398 8.32861328 C-6.62133238 4.25777993 -6.62133238 4.25777993 0 0 Z " fill="#005EB8" transform="translate(164,122)"/>
<path d="M0 0 C15.78505129 9.02002931 15.78505129 9.02002931 21.3828125 12.33984375 C21.99671844 12.70376724 22.61062439 13.06769073 23.24313354 13.44264221 C25.20458611 14.60620296 27.16488424 15.77168892 29.125 16.9375 C29.81319824 17.34629395 30.50139648 17.75508789 31.21044922 18.17626953 C41.98141846 24.57562319 52.70275392 31.05250401 63.40087891 37.57275391 C72.39634742 43.04975932 81.44060718 48.442012 90.5 53.8125 C91.85680544 54.61769884 93.21357671 55.42295528 94.5703125 56.22827148 C100.52906486 59.76388841 106.49228971 63.29123487 112.46875 66.796875 C114.31255309 67.88532674 116.15630738 68.97386115 118 70.0625 C118.83080078 70.54501221 119.66160156 71.02752441 120.51757812 71.5246582 C122.37897377 72.62777533 124.19601965 73.80529667 126 75 C126 75.66 126 76.32 126 77 C123.78222656 78.51782227 123.78222656 78.51782227 120.640625 80.31640625 C119.79013832 80.80830193 119.79013832 80.80830193 118.92247009 81.31013489 C117.68688582 82.02400045 116.44940174 82.73458521 115.21029663 83.44232178 C111.86153294 85.35591592 108.52728392 87.29452748 105.19140625 89.23046875 C104.16041557 89.82761688 104.16041557 89.82761688 103.1085968 90.43682861 C96.41081587 94.32374513 89.79454276 98.33593266 83.1875 102.375 C72.502111 108.8992848 61.75803192 115.31837867 50.98297119 121.69335938 C39.9772749 128.20673693 29.02637448 134.80545362 18.11914062 141.48242188 C17.04986328 142.13533203 15.98058594 142.78824219 14.87890625 143.4609375 C13.49554077 144.30857666 13.49554077 144.30857666 12.08422852 145.17333984 C8.10359575 147.53090292 4.04419781 149.75322344 0 152 C0 101.84 0 51.68 0 0 Z " fill="#005EB8" transform="translate(0,23)"/>
<path d="M0 0 C0 50.16 0 100.32 0 152 C-15.78505129 142.97997069 -15.78505129 142.97997069 -21.3828125 139.66015625 C-21.99671844 139.29623276 -22.61062439 138.93230927 -23.24313354 138.55735779 C-25.20458611 137.39379704 -27.16488424 136.22831108 -29.125 135.0625 C-29.81319824 134.65370605 -30.50139648 134.24491211 -31.21044922 133.82373047 C-41.98141846 127.42437681 -52.70275392 120.94749599 -63.40087891 114.42724609 C-72.39634742 108.95024068 -81.44060718 103.557988 -90.5 98.1875 C-91.85680544 97.38230116 -93.21357671 96.57704472 -94.5703125 95.77172852 C-100.52906486 92.23611159 -106.49228971 88.70876513 -112.46875 85.203125 C-114.31255309 84.11467326 -116.15630738 83.02613885 -118 81.9375 C-118.83080078 81.45498779 -119.66160156 80.97247559 -120.51757812 80.4753418 C-122.37897377 79.37222467 -124.19601965 78.19470333 -126 77 C-126 76.34 -126 75.68 -126 75 C-123.78222656 73.48217773 -123.78222656 73.48217773 -120.640625 71.68359375 C-120.07363388 71.3556633 -119.50664276 71.02773285 -118.92247009 70.68986511 C-117.68688582 69.97599955 -116.44940174 69.26541479 -115.21029663 68.55767822 C-111.86153294 66.64408408 -108.52728392 64.70547252 -105.19140625 62.76953125 C-104.50407913 62.3714325 -103.81675201 61.97333374 -103.1085968 61.56317139 C-96.41081587 57.67625487 -89.79454276 53.66406734 -83.1875 49.625 C-73.16894567 43.50787111 -63.10204027 37.47821032 -53 31.5 C-42.465632 25.26430986 -31.96142489 18.98239219 -21.5 12.625 C-20.91863281 12.27187744 -20.33726562 11.91875488 -19.73828125 11.55493164 C-14.5645255 8.41086869 -9.39783243 5.25985733 -4.28125 2.0234375 C-1 0 -1 0 0 0 Z " fill="#015EB8" transform="translate(330,23)"/>
<path d="M0 0 C83.16 0 166.32 0 252 0 C248.34181426 2.92654859 245.14994529 5.20520178 241.15234375 7.51171875 C240.59242737 7.83681931 240.03251099 8.16191986 239.45562744 8.49687195 C238.24905903 9.19727166 237.04151812 9.89599827 235.83309937 10.59320068 C232.55478033 12.48572204 229.28503507 14.39292187 226.015625 16.30078125 C225.00782234 16.88865417 225.00782234 16.88865417 223.97966003 17.48840332 C217.33457766 21.37331145 210.75684695 25.36346998 204.1875 29.375 C193.50275041 35.89709666 182.76213309 42.31872895 171.98699951 48.69033813 C164.60730914 53.0550057 157.24358492 57.44232324 149.92578125 61.91015625 C149.2789035 62.304841 148.63202576 62.69952576 147.96554565 63.10617065 C144.89597672 64.98038773 141.82961068 66.85959028 138.76757812 68.74609375 C137.68541016 69.40867187 136.60324219 70.07125 135.48828125 70.75390625 C134.54509033 71.33470947 133.60189941 71.9155127 132.63012695 72.51391602 C127.59828458 75.35702606 127.59828458 75.35702606 125 76 C122.36987305 74.96801758 122.36987305 74.96801758 119.51171875 73.14453125 C118.42955078 72.4690625 117.34738281 71.79359375 116.23242188 71.09765625 C115.6567749 70.72656738 115.08112793 70.35547852 114.48803711 69.97314453 C112.01930607 68.38177539 109.5261622 66.83053262 107.03445435 65.27548218 C105.71430707 64.45069071 104.39554416 63.62367975 103.07809448 62.79458618 C96.46226844 58.63532089 89.74665447 54.65293554 83.01382446 50.68685913 C71.16005877 43.70077355 59.37351606 36.60997319 47.62866211 29.44262695 C41.21629195 25.53687306 34.78145237 21.67347487 28.31640625 17.85546875 C27.58569916 17.4236026 26.85499207 16.99173645 26.10214233 16.54678345 C22.53547652 14.43976772 18.96611351 12.3375305 15.39257812 10.2421875 C14.09628285 9.47798554 12.80005548 8.71366839 11.50390625 7.94921875 C10.36767822 7.28237061 9.2314502 6.61552246 8.06079102 5.9284668 C5 4 5 4 0 0 Z " fill="#005EB8" transform="translate(39,0)"/>
</svg>
